<?xml version="1.0" standalone="no"?>
<!DOCTYPE svg PUBLIC "-//W3C//DTD SVG 20010904//EN"
 "http://www.w3.org/TR/2001/REC-SVG-20010904/DTD/svg10.dtd">
<svg version="1.0" xmlns="http://www.w3.org/2000/svg"
 width="690.000000pt" height="690.000000pt" viewBox="0 0 690.000000 690.000000"
 preserveAspectRatio="xMidYMid meet">
<metadata>
Created by potrace 1.14, written by Peter Selinger 2001-2017
</metadata>
<g transform="translate(0.000000,690.000000) scale(0.100000,-0.100000)"
fill="#000000" stroke="none">
<path d="M3263 6596 c-297 -57 -545 -229 -728 -506 -222 -336 -1652 -3253
-1896 -3868 -17 -42 -44 -129 -61 -192 -26 -100 -31 -138 -35 -291 -4 -138 -2
-198 11 -275 47 -272 172 -512 375 -714 124 -123 240 -204 394 -272 174 -78
305 -107 566 -123 57 -4 113 -8 125 -11 11 -2 59 -6 106 -9 47 -3 101 -8 120
-10 231 -26 1042 -27 1188 -1 9 2 44 7 77 10 135 16 174 23 267 47 462 117
781 398 918 807 16 48 32 103 36 122 3 19 8 46 11 60 9 51 12 286 3 330 -4 25
-11 61 -14 80 -30 187 -149 419 -287 559 -192 195 -393 277 -749 306 -41 3
-93 8 -115 10 -22 2 -67 7 -100 10 -33 4 -98 13 -145 21 -47 9 -98 18 -115 21
-59 10 -271 75 -330 101 -163 71 -327 259 -398 458 -109 304 -33 638 200 880
103 107 163 146 298 193 142 51 272 73 440 76 156 3 232 -3 350 -31 168 -38
219 -65 320 -168 170 -173 248 -380 270 -721 3 -38 6 -77 7 -85 0 -8 10 -23
21 -32 11 -10 16 -18 12 -18 -4 0 2 -9 15 -20 12 -11 26 -17 30 -15 4 3 10 -1
13 -9 8 -21 115 -15 165 9 37 18 71 58 80 95 14 57 -1 260 -28 388 -92 435
-346 766 -675 877 -80 27 -212 56 -315 70 -94 13 -397 13 -470 0 -30 -5 -144
-27 -205 -39 -136 -28 -345 -123 -447 -204 -628 -502 -642 -1388 -30 -1899 97
-81 272 -165 412 -198 8 -2 47 -13 85 -23 61 -18 116 -30 205 -47 13 -3 42 -7
65 -10 22 -3 51 -8 65 -10 26 -4 87 -11 180 -19 263 -24 327 -34 415 -65 198
-70 360 -271 416 -516 14 -64 20 -251 9 -302 -5 -21 -11 -49 -13 -63 -10 -53
-60 -168 -104 -239 -103 -164 -230 -268 -437 -356 -52 -22 -265 -71 -346 -81
-36 -4 -76 -8 -90 -10 -216 -26 -873 -25 -1135 2 -74 7 -117 13 -145 19 -14 3
-45 8 -70 11 -25 3 -74 12 -110 21 -36 8 -110 21 -165 29 -164 23 -304 72
-415 147 -231 156 -379 397 -410 673 -21 178 12 352 110 584 51 123 319 699
570 1225 315 662 1077 2176 1211 2406 115 197 236 305 412 364 161 54 328 41
486 -37 118 -58 232 -171 318 -319 171 -290 1041 -2049 1480 -2994 378 -812
396 -862 396 -1110 0 -205 -47 -363 -158 -531 -30 -45 -55 -87 -55 -93 0 -6
-4 -11 -10 -11 -5 0 -10 -6 -10 -13 0 -7 -8 -22 -18 -33 -9 -10 -27 -32 -40
-48 -12 -16 -22 -25 -22 -20 0 5 -4 4 -8 -1 -14 -20 -80 -64 -86 -58 -3 4 -6
1 -6 -6 0 -7 -4 -9 -10 -6 -5 3 -10 -1 -10 -9 0 -9 -3 -15 -7 -15 -22 4 -33
-2 -27 -13 4 -7 4 -10 -1 -6 -4 4 -20 1 -35 -7 -15 -8 -30 -11 -34 -8 -3 4 -6
1 -6 -5 0 -12 -64 -32 -120 -38 -19 -2 -62 -7 -95 -12 -34 -4 -78 -7 -98 -7
-20 1 -37 -2 -37 -7 0 -4 -7 -8 -15 -8 -8 0 -15 -5 -15 -12 0 -6 -3 -8 -6 -5
-4 4 -22 -12 -40 -35 -18 -24 -31 -44 -29 -46 2 -3 -3 -11 -11 -19 -8 -8 -11
-20 -7 -26 8 -13 11 -28 15 -64 1 -13 6 -23 10 -23 4 0 8 -6 8 -13 0 -7 9 -20
20 -30 11 -9 20 -14 20 -10 0 3 8 -1 18 -9 31 -27 83 -41 141 -40 322 11 551
103 756 307 239 238 345 436 411 769 41 209 30 420 -32 618 -39 123 -140 360
-272 638 -27 58 -97 206 -155 330 -327 703 -710 1484 -1104 2255 -387 758
-422 816 -592 986 -136 135 -286 222 -468 270 -101 27 -326 35 -430 15z"/>
<path d="M4240 2836 c0 -2 7 -9 15 -16 13 -11 14 -10 9 4 -5 14 -24 23 -24 12z"/>
</g>
</svg>
